<svg width="13" height="13" viewBox="0 0 13 13" fill="none" xmlns="http://www.w3.org/2000/svg">
<path d="M2.85826 3.61161C2.95989 3.48945 3.05492 3.35816 3.16723 3.24664C4.09481 2.31901 5.02391 1.39324 5.95454 0.46933C6.64057 -0.213467 7.38504 -0.143515 7.94301 0.674624C8.44355 0.47744 8.93546 0.486058 9.33082 0.906786C9.71702 1.31687 9.73735 1.79387 9.49038 2.28303C10.151 2.83099 10.2648 3.18024 10.0072 3.89903L10.1647 4.00903C10.7461 4.41455 10.8518 5.17946 10.3802 5.71171C10.1795 5.93829 9.93757 6.12838 9.70229 6.34635C9.79173 6.41782 9.83543 6.45584 9.88168 6.4898C10.4529 6.91408 10.5474 7.69471 10.0504 8.19755C8.75455 9.50942 7.46685 10.8334 6.12833 12.1007C4.70545 13.4491 2.47357 13.2448 1.15233 11.7337C0.355015 10.8213 0.0699313 9.74969 0.0470637 8.58027C0.0343595 7.92129 0.0470634 7.26232 0.0404572 6.60335C0.0323265 5.99507 -0.0103597 5.38678 0.00234451 4.7785C0.0139128 4.53724 0.08364 4.30233 0.205612 4.09368C0.302673 3.92336 0.358062 3.77028 0.349931 3.57917C0.32808 3.14881 0.307245 2.71744 0.299114 2.28759C0.296875 2.1351 0.325206 1.98372 0.382442 1.84231C0.439678 1.7009 0.524662 1.57233 0.632408 1.46414C0.740155 1.35595 0.868487 1.27034 1.00987 1.21232C1.15125 1.1543 1.30283 1.12504 1.45571 1.12628C1.73726 1.13269 2.00689 1.24087 2.21449 1.4307C2.42209 1.62053 2.55352 1.87909 2.58435 2.15833C2.63517 2.6267 2.70937 3.09255 2.7734 3.55991L2.85826 3.61161ZM0.756467 6.7544H0.807284C0.807284 7.3713 0.799661 7.9882 0.807284 8.6051C0.823545 9.68987 1.11981 10.6621 1.92526 11.4438C2.98174 12.4702 4.62313 12.5082 5.67758 11.4818C6.94394 10.248 8.1854 8.98883 9.43804 7.7383C9.6347 7.54162 9.65045 7.32011 9.49444 7.15638C9.33844 6.99265 9.09655 7.00836 8.89277 7.20707C8.57313 7.52185 8.25908 7.84171 7.93945 8.15599C7.7311 8.35875 7.49988 8.38308 7.33676 8.22239C7.16398 8.05157 7.18075 7.83867 7.39418 7.62222C7.70874 7.30287 8.02837 6.98809 8.34547 6.67127C8.54874 6.46851 8.75709 6.2693 8.95528 6.05843C9.02414 5.98781 9.06216 5.89286 9.06102 5.79434C9.05987 5.69583 9.01966 5.60178 8.94918 5.53277C8.79012 5.38932 8.61277 5.38983 8.44101 5.51047C8.38832 5.55304 8.33936 5.60002 8.29466 5.65088C7.80326 6.14055 7.31897 6.63832 6.81436 7.11329C6.75794 7.15862 6.69258 7.19158 6.62253 7.21001C6.55248 7.22844 6.47931 7.23193 6.40782 7.22025C6.30619 7.19845 6.17204 7.04435 6.16543 6.94196C6.16789 6.79525 6.22557 6.65484 6.32702 6.5486C6.99425 5.86428 7.67621 5.19416 8.35157 4.51745C8.56602 4.30303 8.5833 4.09114 8.4095 3.9193C8.23571 3.74746 8.02533 3.77332 7.81139 3.9847C7.52224 4.26957 7.23614 4.558 6.9475 4.84643C6.55214 5.2408 6.15933 5.6377 5.76041 6.02802C5.55715 6.22621 5.34372 6.23534 5.17754 6.06907C5.0195 5.90991 5.03627 5.68636 5.22836 5.48766C5.34524 5.36499 5.46771 5.24789 5.58713 5.12827C5.97639 4.73998 6.36819 4.35423 6.75592 3.96239C6.94903 3.76571 6.95919 3.54014 6.79505 3.38097C6.63091 3.22181 6.41647 3.23803 6.21015 3.43166C6.15933 3.47779 6.1141 3.52696 6.06582 3.57512C4.89195 4.74606 3.71842 5.91768 2.54522 7.08997C2.40903 7.22633 2.26421 7.31504 2.07263 7.24204C1.89426 7.17361 1.84039 7.02357 1.81854 6.84058C1.72707 6.15525 1.62035 5.47194 1.52431 4.78712C1.48112 4.47892 1.35103 4.33902 1.10609 4.35929C0.86115 4.37957 0.759006 4.54431 0.761039 4.85504C0.759006 5.48816 0.756467 6.12128 0.756467 6.75491V6.7544ZM2.47205 6.07212C2.55234 5.99709 2.58893 5.96415 2.6245 5.92917C4.1114 4.448 5.59797 2.9665 7.0842 1.48466C7.13197 1.43751 7.20514 1.38328 7.20971 1.33258C7.22039 1.19927 7.24681 1.02236 7.17668 0.938214C7.09741 0.844437 6.91752 0.795776 6.78387 0.800338C6.68782 0.80338 6.58568 0.916417 6.50336 0.998028C5.31424 2.17843 4.1275 3.3612 2.94312 4.54634C2.76221 4.72781 2.5874 4.87633 2.28911 4.7709C2.35111 5.20683 2.40853 5.61337 2.47205 6.07212ZM7.13145 2.54307L7.65132 3.11333C7.99738 2.7585 8.3841 2.36666 8.76167 1.96773C8.93038 1.7893 8.92428 1.58046 8.7703 1.42484C8.73444 1.38876 8.69165 1.36028 8.64448 1.34111C8.59732 1.32194 8.54676 1.31248 8.49583 1.31328C8.44491 1.31409 8.39467 1.32515 8.34814 1.3458C8.30161 1.36645 8.25973 1.39627 8.22504 1.43346C7.83476 1.8187 7.45465 2.2151 7.13247 2.54307H7.13145ZM1.12032 3.50009L2.05992 3.94921C1.98471 3.42001 1.90188 2.84011 1.82058 2.25971C1.78755 2.02349 1.63154 1.87497 1.42471 1.88764C1.37388 1.89019 1.32408 1.90289 1.27825 1.92498C1.23243 1.94707 1.19151 1.9781 1.15792 2.01624C1.12432 2.05438 1.09874 2.09885 1.08268 2.14703C1.06662 2.1952 1.06042 2.2461 1.06442 2.29671C1.0756 2.71592 1.10253 3.13563 1.12032 3.50009ZM9.25103 3.60147C9.29002 3.56913 9.32145 3.52869 9.34315 3.48298C9.36486 3.43726 9.3763 3.38738 9.37669 3.3368C9.37708 3.28622 9.3664 3.23617 9.3454 3.19013C9.3244 3.14409 9.29358 3.10318 9.2551 3.07024C9.07317 2.89587 8.86432 2.92628 8.73067 3.09711L9.25103 3.60147ZM9.78969 5.21849C9.9457 5.05426 9.96298 4.84237 9.78969 4.68067C9.61641 4.51897 9.4106 4.54178 9.2678 4.69993L9.78969 5.21849Z" fill="#535353"/>
<path d="M10.9808 1.55967C10.8919 1.4882 10.7455 1.42636 10.7059 1.32346C10.6622 1.2089 10.6642 1.01323 10.7358 0.929593C10.9968 0.631967 11.2761 0.350929 11.5723 0.0881346C11.7247 -0.0492358 11.9087 -0.0173003 12.0525 0.123618C12.1882 0.256934 12.2243 0.446008 12.1033 0.57983C11.8238 0.893095 11.5154 1.18051 11.2125 1.47198C11.1668 1.51557 11.0895 1.52115 10.9808 1.55967Z" fill="#535353"/>
<path d="M12.1897 3.2558C12.0543 3.26241 11.9185 3.2614 11.7832 3.25276C11.5703 3.22893 11.4422 3.10068 11.4376 2.88474C11.433 2.6688 11.5601 2.52282 11.7695 2.5066C12.0569 2.48218 12.3459 2.48218 12.6333 2.5066C12.8412 2.52535 12.9642 2.67844 12.954 2.89438C12.9449 3.09714 12.8214 3.22386 12.6222 3.24921C12.4786 3.25952 12.3345 3.26071 12.1907 3.25276L12.1897 3.2558Z" fill="#535353"/>
</svg>
