<svg width="13" height="13" viewBox="0 0 13 13" fill="none" xmlns="http://www.w3.org/2000/svg">
<g clip-path="url(#clip0_1711_34)">
<path d="M1.79031 6.65281C1.87615 6.57108 1.94269 6.50966 2.00821 6.44519C3.33081 5.12529 4.65375 3.80352 5.97703 2.4799C6.27162 2.18597 6.6231 2.17835 6.86385 2.45401C7.08123 2.70276 7.05583 3.01243 6.7841 3.28859C6.15226 3.92519 5.51432 4.55468 4.88553 5.19534C4.80324 5.27859 4.71944 5.4111 4.72554 5.51567C4.73296 5.57896 4.75379 5.63995 4.78663 5.69457C4.81947 5.74919 4.86357 5.79619 4.91601 5.83245C5.00235 5.88321 5.15472 5.85174 5.26748 5.81925C5.3396 5.79843 5.39446 5.71213 5.45439 5.65274C6.2508 4.85707 7.04652 4.06175 7.84158 3.26676C8.0168 3.09111 8.21743 3.00177 8.4597 3.0703C8.5635 3.0968 8.65728 3.15307 8.72948 3.23217C8.80168 3.31128 8.84914 3.40978 8.86603 3.51551C8.91276 3.7465 8.81118 3.92164 8.65271 4.08003C7.86138 4.86824 7.07124 5.65765 6.28228 6.44823C6.24013 6.48986 6.19645 6.52996 6.15734 6.57464C6.00039 6.75181 5.99938 6.96604 6.15277 7.11783C6.30616 7.26962 6.52862 7.27012 6.69522 7.10564C7.22547 6.58276 7.75015 6.05429 8.27685 5.52786C8.4145 5.39028 8.54808 5.24814 8.6908 5.11615C8.95898 4.8679 9.29623 4.86943 9.52682 5.11259C9.74827 5.34764 9.74117 5.67812 9.4928 5.9289C8.84978 6.57819 8.1966 7.21733 7.56019 7.87372C7.46724 7.96967 7.38649 8.14227 7.40223 8.26715C7.44236 8.58799 7.80856 8.67734 8.05795 8.4362C8.52929 7.97424 8.9925 7.50415 9.46029 7.03813C9.63857 6.86095 9.83868 6.75638 10.0992 6.84928C10.188 6.87819 10.2682 6.92857 10.3328 6.99594C10.3974 7.0633 10.4443 7.14557 10.4695 7.23542C10.4946 7.32528 10.4971 7.41995 10.4768 7.51102C10.4566 7.6021 10.4141 7.68675 10.3532 7.75747C10.3049 7.81636 10.2481 7.86763 10.1942 7.92144C8.84165 9.27332 7.4515 10.5917 6.14769 11.9878C5.06787 13.1416 3.55277 13.2254 2.33835 12.6645C1.04927 12.07 0.343275 11.0171 0.166014 9.63528C0.0644315 8.85908 0.0771261 8.06765 0.054778 7.28282C0.0278586 6.34416 0.0156687 5.40449 0.00398678 4.46686C-0.0036319 3.89727 0.530692 3.51196 1.04013 3.71807C1.33218 3.83635 1.49115 4.06277 1.52417 4.37548C1.59629 5.05624 1.66588 5.7365 1.73901 6.41676C1.75164 6.49635 1.76877 6.57516 1.79031 6.65281Z" fill="#498FFA"/>
<path d="M2.34965 4.95577C2.31461 4.67199 2.27194 4.38923 2.24807 4.10494C2.24705 4.02515 2.27689 3.94804 2.33136 3.8897C3.56491 2.64865 4.80202 1.41082 6.04268 0.176209C6.14782 0.0729747 6.28903 0.0146865 6.43641 0.013685C6.58379 0.0126835 6.72578 0.0690466 6.83231 0.170843C6.93884 0.272639 7.00157 0.411876 7.00719 0.55908C7.01281 0.706283 6.9609 0.849899 6.86245 0.95952C6.61916 1.21842 6.40533 1.50271 6.00459 1.58495C5.79279 1.62861 5.58708 1.80324 5.42303 1.96417C4.46917 2.89977 3.52851 3.84807 2.58583 4.79434C2.52621 4.86397 2.47237 4.93833 2.42482 5.01669L2.34965 4.95577Z" fill="#498FFA"/>
<path d="M1.63926 3.17033C1.10392 2.85812 0.602097 2.82005 0.0616788 3.06576C0.042886 2.73324 0.00174816 2.4256 0.013938 2.12C0.0301912 1.71387 0.363376 1.42248 0.770213 1.41994C1.17705 1.4174 1.48129 1.69661 1.52599 2.11644C1.56103 2.45149 1.59811 2.78655 1.63926 3.17033Z" fill="#498FFA"/>
<path d="M7.73858 2.37579L7.21289 1.68741C7.44501 1.44831 7.68982 1.17113 7.96206 0.92593C8.17894 0.728961 8.52076 0.765003 8.71986 0.96908C8.91896 1.17316 8.95808 1.50059 8.75542 1.72549C8.47708 2.03262 8.21855 2.38645 7.73858 2.37579Z" fill="#498FFA"/>
<path d="M12.2588 0.352934C12.1806 0.493046 12.142 0.606761 12.0663 0.689508C11.8484 0.924044 11.6188 1.1464 11.3877 1.37129C11.1846 1.5647 10.9692 1.57689 10.8067 1.41596C10.6442 1.25503 10.6609 1.02354 10.8478 0.832159C11.083 0.590008 11.3115 0.338211 11.5716 0.125504C11.6309 0.0855545 11.698 0.0585732 11.7684 0.0463257C11.8389 0.0340782 11.9111 0.0368408 11.9805 0.0544328C12.0892 0.0874303 12.1633 0.241757 12.2588 0.352934Z" fill="#498FFA"/>
<path d="M12.2344 3.10015C12.1074 3.10015 11.9805 3.10675 11.854 3.10015C11.7556 3.09886 11.6616 3.05944 11.5918 2.99021C11.522 2.92097 11.4818 2.82734 11.4797 2.72905C11.4767 2.63044 11.513 2.53466 11.5806 2.46279C11.6482 2.39091 11.7416 2.34883 11.8403 2.34578C12.111 2.33103 12.3823 2.33103 12.6529 2.34578C12.8652 2.35999 12.9877 2.49807 12.9998 2.71332C13.0017 2.76212 12.9938 2.81079 12.9768 2.85656C12.9597 2.90232 12.9338 2.94426 12.9005 2.97997C12.8672 3.01568 12.8271 3.04446 12.7826 3.06465C12.7381 3.08484 12.6901 3.09604 12.6413 3.09761C12.5062 3.10827 12.37 3.10015 12.2344 3.10015Z" fill="#498FFA"/>
</g>
<defs>
<clipPath id="clip0_1711_34">
<rect width="13" height="13" fill="white"/>
</clipPath>
</defs>
</svg>
