<svg width="16" height="13" viewBox="0 0 16 13" fill="none" xmlns="http://www.w3.org/2000/svg">
<path d="M8.01548 10.404C7.94798 9.75988 7.6155 9.3219 6.99618 9.05138C7.32178 8.37802 7.26866 7.74506 6.6837 7.23623C6.14874 6.76781 5.51692 6.73033 4.86697 7.02544C3.92954 5.79113 3.2071 5.75834 1.85971 6.87847C0.511687 5.85086 -0.293253 4.58786 0.0998416 2.90856C0.446065 1.42716 1.45349 0.449318 3.03711 0.122591C4.86447 -0.255664 6.15 0.43234 7.32803 1.77555C6.80807 2.26037 6.30561 2.77096 5.75753 3.22884C4.95446 3.90338 5.07508 4.63412 5.42068 5.07093C5.89252 5.67169 6.88181 5.87487 7.61363 5.5013C7.82814 5.38281 8.02486 5.23808 8.19859 5.07093C8.64668 4.66633 9.08101 4.25119 9.52723 3.82902C9.60347 3.89225 9.65972 3.93441 9.71034 3.98184C11.2519 5.43591 12.7934 6.88921 14.335 8.34172C14.5387 8.53377 14.6631 8.7633 14.5375 8.99459C14.4468 9.16146 14.2319 9.33712 14.0444 9.3705C13.8706 9.40094 13.6175 9.29145 13.4738 9.1679C12.9826 8.74691 12.5239 8.28961 12.0527 7.85104C11.6864 7.50733 11.4002 7.44527 11.1777 7.66074C10.9552 7.87622 11.0302 8.12917 11.4021 8.48049C11.8802 8.92901 12.3608 9.37577 12.8395 9.82722C13.0613 10.038 13.1082 10.2869 12.9588 10.5492C12.8189 10.7963 12.5739 10.8835 12.2976 10.8197C12.151 10.7765 12.0184 10.6993 11.912 10.5954C11.3896 10.1194 10.8821 9.62872 10.3615 9.15092C10.0553 8.86987 9.58723 8.95243 9.53598 9.30843C9.51411 9.46067 9.61473 9.67146 9.73347 9.79091C10.2378 10.2968 10.7759 10.7728 11.2902 11.2706C11.6508 11.6219 11.5402 12.1149 11.0759 12.2595C10.8071 12.3444 10.5878 12.2542 10.3978 12.0762C10.0153 11.7173 9.6241 11.366 9.2535 10.9965C8.91603 10.661 8.52919 10.442 8.01548 10.404Z" fill="#498FFA"/>
<path d="M14.1725 6.87594C13.3676 6.13876 12.5758 5.41972 11.7921 4.69366C11.1778 4.12511 10.5741 3.54602 9.96286 2.97395C9.65038 2.68119 9.42478 2.68119 9.11168 2.97395C8.54359 3.50093 7.98176 4.03845 7.40993 4.56485C7.09308 4.85761 6.63561 4.88748 6.30251 4.65619C6.04753 4.48053 6.00754 4.24632 6.23127 4.0326C7.33931 2.98859 8.42173 1.91824 9.57726 0.92166C10.1455 0.432991 10.8613 0.121072 11.6263 0.0287114C12.3913 -0.0636493 13.1681 0.0680748 13.8501 0.405805C15.3456 1.14241 16.0649 2.33806 15.9936 3.919C15.9574 4.73055 15.6224 5.45368 15.0431 6.06264C14.7675 6.35365 14.4556 6.61421 14.1725 6.87594Z" fill="#498FFA"/>
<path d="M3.62213 10.8396C3.42527 10.6885 3.22154 10.5843 3.09905 10.425C3.03046 10.3357 2.99841 10.2262 3.00873 10.1166C3.01906 10.007 3.07107 9.90446 3.1553 9.82775C3.84399 9.16415 4.54248 8.50816 5.25076 7.85978C5.48137 7.65016 5.81321 7.67885 6.04507 7.87559C6.16148 7.96821 6.23557 8.09912 6.25208 8.24138C6.26859 8.38363 6.22626 8.5264 6.13382 8.6403C6.08448 8.70313 6.02949 8.7619 5.96945 8.81596C5.3745 9.37631 4.78205 9.94018 4.17834 10.4906C4.03648 10.6194 3.84587 10.702 3.62213 10.8396Z" fill="#498FFA"/>
<path d="M2.04188 9.37161C1.87377 9.23635 1.63628 9.1333 1.56879 8.96877C1.50129 8.80423 1.51567 8.50678 1.63128 8.37913C2.05779 7.92582 2.51162 7.49572 2.99055 7.09096C3.24428 6.87197 3.60363 6.92643 3.82861 7.16298C4.0536 7.39954 4.05547 7.69816 3.81799 7.93062C3.39427 8.34674 2.95972 8.75348 2.51434 9.15086C2.41185 9.24221 2.24936 9.27734 2.04188 9.37161Z" fill="#498FFA"/>
<path d="M7.15024 10.4038C7.02525 10.6052 6.96275 10.7645 6.84463 10.8781C6.45779 11.2605 6.05719 11.6305 5.6541 11.9976C5.371 12.2559 4.98541 12.257 4.7373 12.0146C4.4892 11.7722 4.50482 11.4408 4.7773 11.1802C5.1856 10.7899 5.59785 10.4034 6.01407 10.0209C6.21281 9.83761 6.47341 9.7773 6.70152 9.91373C6.879 10.0221 6.99212 10.2282 7.15024 10.4038Z" fill="#498FFA"/>
<path d="M7.38383 13.0025C7.23571 12.8936 7.03073 12.7946 6.90761 12.6395C6.752 12.4422 6.80075 12.2015 6.97011 12.0182C7.16556 11.8042 7.3787 11.6049 7.60756 11.4222C7.7235 11.3288 7.87369 11.2814 8.02629 11.2901C8.17888 11.2987 8.32189 11.3627 8.425 11.4684C8.63936 11.6716 8.68248 11.9954 8.48749 12.2115C8.27713 12.4393 8.04947 12.6526 7.80629 12.8497C7.71818 12.9217 7.57944 12.934 7.38383 13.0025Z" fill="#498FFA"/>
</svg>
