<svg width="14" height="13" viewBox="0 0 14 13" fill="none" xmlns="http://www.w3.org/2000/svg">
<path d="M8.38393 11.2847C8.28114 12.0191 7.52007 12.8614 6.86834 12.9748C6.14719 13.0994 5.56162 12.7589 5.23794 12.0359C4.96894 12.0078 4.69721 12.0197 4.45172 11.9463C3.94598 11.7947 3.62613 11.4461 3.49491 10.9318C3.47468 10.8531 3.40689 10.7419 3.34128 10.7257C2.46649 10.5099 2.12968 10.1397 2.05915 9.26503C1.52389 9.14524 1.10454 8.85925 0.92958 8.31101C0.759542 7.78005 0.862874 7.30089 1.26856 6.87622C0.347839 5.9724 -0.0917475 4.88403 0.0159617 3.61219C0.100707 2.60746 0.53592 1.75382 1.28223 1.05774C2.68956 -0.255647 5.2363 -0.495767 6.99683 1.26818C7.23576 1.07824 7.46266 0.871035 7.71526 0.700521C10.1756 -0.965218 13.548 0.500331 13.9569 3.41254C14.139 4.70758 13.7431 5.82347 12.8328 6.76345C12.6141 6.989 12.4304 7.19782 12.3621 7.53723C12.2303 8.19446 11.7338 8.51336 11.081 8.61319C10.9629 9.32816 10.5824 9.79383 9.83445 9.9228C9.80268 9.93327 9.77391 9.95107 9.75052 9.97472C9.72713 9.99837 9.70979 10.0272 9.69994 10.0588C9.57036 10.7813 9.10946 11.159 8.38393 11.2847ZM6.69885 7.58957L7.31777 6.94205C7.95856 7.57554 8.59442 8.20741 9.23138 8.8355C9.49601 9.09559 9.80656 9.11448 10.0231 8.89216C10.2396 8.66985 10.2183 8.39627 9.95418 8.13349C9.43404 7.61619 8.91154 7.10123 8.38666 6.58862C8.27752 6.49011 8.16289 6.39769 8.0433 6.3118C8.29317 6.04902 8.4889 5.84235 8.69339 5.62651C9.31832 6.24381 9.9509 6.86759 10.5802 7.49029C10.8459 7.75145 11.1592 7.77627 11.3724 7.56151C11.5955 7.3365 11.5698 7.05105 11.2954 6.7791C10.6136 6.10406 9.92849 5.4301 9.24724 4.75506C9.05588 4.56458 8.88037 4.35954 8.70815 4.1723C8.24177 4.4135 7.81477 4.52951 7.34128 4.47879C6.36698 4.37411 5.89513 3.60032 5.21279 2.99327L6.35385 1.90328C5.54904 1.11817 4.60427 0.743151 3.47797 0.944421C2.26145 1.16026 1.42821 1.86875 1.05533 3.02295C0.675886 4.19712 0.958007 5.25797 1.82077 6.15262C1.87545 6.20658 2.00229 6.21306 2.09415 6.2109C2.40579 6.20442 2.73657 6.10945 3.02362 6.18392C3.71525 6.36306 4.0258 6.87946 4.05642 7.57878C4.7579 7.73311 5.15484 8.17234 5.27239 8.85979C5.95527 8.91375 6.38666 9.27636 6.62504 9.88125C7.14171 9.78196 7.57255 9.91362 7.95746 10.2401C8.21607 10.4592 8.51132 10.4268 8.70213 10.1861C8.87654 9.97028 8.84484 9.70048 8.60427 9.46467C7.96949 8.83874 7.32925 8.21011 6.69885 7.58957ZM12.0794 6.26702C12.8284 5.4846 13.2472 4.59912 13.0799 3.48916C12.8148 1.72792 10.905 0.504108 9.17234 0.991366C8.01269 1.31512 7.36151 2.2659 6.53428 3.01432C6.76009 3.29923 7.00394 3.51183 7.34019 3.5809C7.93231 3.70231 8.34128 3.38017 8.71362 2.94417L12.0794 6.26702ZM6.46594 12.113C6.89295 12.1238 7.51624 11.5367 7.46867 11.2286C7.44462 11.0732 7.32652 10.8698 7.1953 10.8094C7.0526 10.7446 6.81258 10.77 6.67152 10.8504C6.47503 10.9639 6.31142 11.1254 6.19639 11.3193C6.11292 11.479 6.097 11.6649 6.15211 11.8362C6.2046 11.9743 6.39924 12.0585 6.46594 12.113ZM4.41564 8.9213C4.30137 8.78478 4.21061 8.58567 4.06353 8.52793C3.91646 8.4702 3.68737 8.50959 3.5403 8.58945C3.36424 8.68496 3.22701 8.85925 3.09196 9.01573C2.90279 9.23481 2.91864 9.50137 3.11164 9.69454C3.30464 9.88772 3.57638 9.90445 3.80055 9.71937C3.95908 9.58605 4.10544 9.43926 4.23795 9.28067C4.3123 9.19596 4.34237 9.07725 4.41564 8.9213ZM2.72674 6.96957C2.59552 6.99547 2.52553 6.98792 2.49273 7.01922C2.24724 7.24855 1.97332 7.46061 1.78196 7.72879C1.65675 7.90308 1.76665 8.12971 1.95145 8.26839C2.13625 8.40706 2.3462 8.43027 2.52881 8.2835C2.71143 8.13673 2.91591 7.97053 3.04057 7.77142C3.0802 7.69516 3.10338 7.61164 3.10865 7.5261C3.11392 7.44056 3.10116 7.35487 3.07118 7.27445C3.01049 7.13577 2.82351 7.04997 2.72674 6.96957ZM5.80711 10.198C5.69776 10.069 5.60481 9.87423 5.45938 9.82027C5.31394 9.76631 5.08321 9.80192 4.93668 9.88125C4.76118 9.97676 4.62778 10.1537 4.49 10.3081C4.40414 10.4022 4.35838 10.5253 4.36225 10.6519C4.36612 10.7784 4.41933 10.8986 4.51077 10.9874C4.55396 11.0338 4.60608 11.0713 4.66409 11.0976C4.7221 11.124 4.78484 11.1386 4.84865 11.1408C4.91247 11.143 4.97608 11.1326 5.03578 11.1102C5.09548 11.0879 5.15008 11.054 5.19639 11.0106C5.35392 10.8761 5.50019 10.7292 5.63379 10.5714C5.70705 10.4861 5.7333 10.3674 5.80711 10.198Z" fill="#535353"/>
</svg>
